HIERARCHY
ROOT Hips
{
    OFFSET   0.000000   0.000000   0.000000
    CHANNELS 6 Xposition Yposition Zposition Zrotation Xrotation Yrotation
    JOINT Chest
    {
        OFFSET   0.000000   8.007230   0.000000
        CHANNELS 3 Zrotation Xrotation Yrotation
        JOINT Chest2
        {
            OFFSET   0.000000  22.077100   0.000000
            CHANNELS 3 Zrotation Xrotation Yrotation
            JOINT Neck
            {
                OFFSET   0.000000  23.255100   0.000000
                CHANNELS 3 Zrotation Xrotation Yrotation
                JOINT Head
                {
                    OFFSET   0.000000  14.370100   1.956600
                    CHANNELS 3 Zrotation Xrotation Yrotation
                    End Site
                    {
                        OFFSET   0.000000  19.566000   0.000000
                    }
                }
            }
            JOINT LeftCollar
            {
                OFFSET   3.911900  19.017000  -0.467063
                CHANNELS 3 Zrotation Xrotation Yrotation
                JOINT LeftShoulder
                {
                    OFFSET  10.383700   0.000000   0.000000
                    CHANNELS 3 Zrotation Xrotation Yrotation
                    JOINT LeftElbow
                    {
                        OFFSET  26.662100   0.001193   0.000980
                        CHANNELS 3 Zrotation Xrotation Yrotation
                        JOINT LeftWrist
                        {
                            OFFSET  28.869000  -0.000059  -0.000082
                            CHANNELS 3 Zrotation Xrotation Yrotation
                            JOINT LeftFinger0
                            {
                                OFFSET   2.044650  -2.323450   3.252850
                                CHANNELS 3 Zrotation Xrotation Yrotation
                                JOINT LeftFinger01
                                {
                                    OFFSET   3.088130   0.000000   0.000000
                                    CHANNELS 3 Zrotation Xrotation Yrotation
                                    JOINT LeftFinger02
                                    {
                                        OFFSET   2.639460   0.000000   0.000000
                                        CHANNELS 3 Zrotation Xrotation Yrotation
                                        End Site
                                        {
                                            OFFSET   2.582190   0.000000   0.000000
                                        }
                                    }
                                }
                            }
                            JOINT LeftFinger1
                            {
                                OFFSET   8.364480   0.000000   3.252850
                                CHANNELS 3 Zrotation Xrotation Yrotation
                                JOINT LeftFinger11
                                {
                                    OFFSET   4.646930   0.000000   0.000000
                                    CHANNELS 3 Zrotation Xrotation Yrotation
                                    JOINT LeftFinger12
                                    {
                                        OFFSET   2.323470   0.000000   0.000000
                                        CHANNELS 3 Zrotation Xrotation Yrotation
                                        End Site
                                        {
                                            OFFSET   2.273050   0.000000   0.000000
                                        }
                                    }
                                }
                            }
                            JOINT LeftFinger2
                            {
                                OFFSET   8.364490   0.000016   1.078090
                                CHANNELS 3 Zrotation Xrotation Yrotation
                                JOINT LeftFinger21
                                {
                                    OFFSET   5.111610   0.000000   0.000000
                                    CHANNELS 3 Zrotation Xrotation Yrotation
                                    JOINT LeftFinger22
                                    {
                                        OFFSET   2.788150   0.000016   0.000000
                                        CHANNELS 3 Zrotation Xrotation Yrotation
                                        End Site
                                        {
                                            OFFSET   2.727660   0.000000   0.000000
                                        }
                                    }
                                }
                            }
                            JOINT LeftFinger3
                            {
                                OFFSET   7.899780   0.000015  -1.078090
                                CHANNELS 3 Zrotation Xrotation Yrotation
                                JOINT LeftFinger31
                                {
                                    OFFSET   4.646930   0.000000   0.000000
                                    CHANNELS 3 Zrotation Xrotation Yrotation
                                    JOINT LeftFinger32
                                    {
                                        OFFSET   2.323470   0.000000   0.000000
                                        CHANNELS 3 Zrotation Xrotation Yrotation
                                        End Site
                                        {
                                            OFFSET   2.273050   0.000000   0.000000
                                        }
                                    }
                                }
                            }
                            JOINT LeftFinger4
                            {
                                OFFSET   7.435090   0.000000  -3.252850
                                CHANNELS 3 Zrotation Xrotation Yrotation
                                JOINT LeftFinger41
                                {
                                    OFFSET   3.717550   0.000000   0.000000
                                    CHANNELS 3 Zrotation Xrotation Yrotation
                                    JOINT LeftFinger42
                                    {
                                        OFFSET   1.858770   0.000000   0.000000
                                        CHANNELS 3 Zrotation Xrotation Yrotation
                                        End Site
                                        {
                                            OFFSET   1.818440   0.000000   0.000000
                                        }
                                    }
                                }
                            }
                        }
                    }
                }
            }
            JOINT RightCollar
            {
                OFFSET  -3.911910  19.017000  -0.467062
                CHANNELS 3 Zrotation Xrotation Yrotation
                JOINT RightShoulder
                {
                    OFFSET -10.383700   0.000014   0.000000
                    CHANNELS 3 Zrotation Xrotation Yrotation
                    JOINT RightElbow
                    {
                        OFFSET -26.662100   0.001225   0.001091
                        CHANNELS 3 Zrotation Xrotation Yrotation
                        JOINT RightWrist
                        {
                            OFFSET -28.869000  -0.000020  -0.000085
                            CHANNELS 3 Zrotation Xrotation Yrotation
                            JOINT RightFinger0
                            {
                                OFFSET  -2.044650  -2.323490   3.252850
                                CHANNELS 3 Zrotation Xrotation Yrotation
                                JOINT RightFinger01
                                {
                                    OFFSET  -3.088130   0.000000   0.000000
                                    CHANNELS 3 Zrotation Xrotation Yrotation
                                    JOINT RightFinger02
                                    {
                                        OFFSET  -2.639460   0.000000   0.000000
                                        CHANNELS 3 Zrotation Xrotation Yrotation
                                        End Site
                                        {
                                            OFFSET  -2.582190   0.000000   0.000000
                                        }
                                    }
                                }
                            }
                            JOINT RightFinger1
                            {
                                OFFSET  -8.364480   0.000000   3.252850
                                CHANNELS 3 Zrotation Xrotation Yrotation
                                JOINT RightFinger11
                                {
                                    OFFSET  -4.646930   0.000000   0.000000
                                    CHANNELS 3 Zrotation Xrotation Yrotation
                                    JOINT RightFinger12
                                    {
                                        OFFSET  -2.323470   0.000000   0.000000
                                        CHANNELS 3 Zrotation Xrotation Yrotation
                                        End Site
                                        {
                                            OFFSET  -2.273050   0.000000   0.000000
                                        }
                                    }
                                }
                            }
                            JOINT RightFinger2
                            {
                                OFFSET  -8.364480   0.000000   1.078090
                                CHANNELS 3 Zrotation Xrotation Yrotation
                                JOINT RightFinger21
                                {
                                    OFFSET  -5.111620   0.000000   0.000000
                                    CHANNELS 3 Zrotation Xrotation Yrotation
                                    JOINT RightFinger22
                                    {
                                        OFFSET  -2.788160   0.000000   0.000000
                                        CHANNELS 3 Zrotation Xrotation Yrotation
                                        End Site
                                        {
                                            OFFSET  -2.727660   0.000000   0.000000
                                        }
                                    }
                                }
                            }
                            JOINT RightFinger3
                            {
                                OFFSET  -7.899780   0.000000  -1.078090
                                CHANNELS 3 Zrotation Xrotation Yrotation
                                JOINT RightFinger31
                                {
                                    OFFSET  -4.646930   0.000000   0.000000
                                    CHANNELS 3 Zrotation Xrotation Yrotation
                                    JOINT RightFinger32
                                    {
                                        OFFSET  -2.323470   0.000000   0.000000
                                        CHANNELS 3 Zrotation Xrotation Yrotation
                                        End Site
                                        {
                                            OFFSET  -2.273050   0.000000   0.000000
                                        }
                                    }
                                }
                            }
                            JOINT RightFinger4
                            {
                                OFFSET  -7.435090   0.000000  -3.252850
                                CHANNELS 3 Zrotation Xrotation Yrotation
                                JOINT RightFinger41
                                {
                                    OFFSET  -3.717550   0.000000   0.000000
                                    CHANNELS 3 Zrotation Xrotation Yrotation
                                    JOINT RightFinger42
                                    {
                                        OFFSET  -1.858760   0.000000   0.000000
                                        CHANNELS 3 Zrotation Xrotation Yrotation
                                        End Site
                                        {
                                            OFFSET  -1.818440   0.000000   0.000000
                                        }
                                    }
                                }
                            }
                        }
                    }
                }
            }
        }
    }
    JOINT LeftHip
    {
        OFFSET   9.783030   0.000000   0.000000
        CHANNELS 3 Zrotation Xrotation Yrotation
        JOINT LeftKnee
        {
            OFFSET   0.000063 -41.789100   0.000608
            CHANNELS 3 Zrotation Xrotation Yrotation
            JOINT LeftAnkle
            {
                OFFSET   0.000048 -41.133200  -0.000184
                CHANNELS 3 Zrotation Xrotation Yrotation
                JOINT LeftToe
                {
                    OFFSET   0.000000  -6.358960  14.674500
                    CHANNELS 3 Zrotation Xrotation Yrotation
                    End Site
                    {
                        OFFSET   0.000000   0.000000   3.913200
                    }
                }
            }
        }
    }
    JOINT RightHip
    {
        OFFSET  -9.783030   0.000000   0.000000
        CHANNELS 3 Zrotation Xrotation Yrotation
        JOINT RightKnee
        {
            OFFSET   0.000071 -41.789100   0.001239
            CHANNELS 3 Zrotation Xrotation Yrotation
            JOINT RightAnkle
            {
                OFFSET   0.000037 -41.133200  -0.000166
                CHANNELS 3 Zrotation Xrotation Yrotation
                JOINT RightToe
                {
                    OFFSET   0.000000  -6.358960  14.674500
                    CHANNELS 3 Zrotation Xrotation Yrotation
                    End Site
                    {
                        OFFSET   0.000000   0.000000   3.913200
                    }
                }
            }
        }
    }
}
MOTION
Frames: 4
Frame Time:   0.016667
  0.450523  89.409000   2.036540  -3.498820 -14.786100  -0.660773  -1.219810  11.035100   2.914900  -3.111030  21.988100   6.252000   1.863530  -2.438720   0.084635   3.083040  -4.928240  -1.276440  -9.654890 -12.137700  -3.418380 -41.092700  33.049200 -56.100500  28.718300  -4.130700 -82.678400  36.409300   2.280900 -20.933600  36.368100  26.986600 -54.767800 -32.762500   0.003981   0.002673 -11.381300   0.002071   0.003432   7.094010  -0.845015  -6.755260  -0.000579  -0.001382   0.005062  -0.000419   0.011362   0.003746  -2.068110   0.131304  -3.622320  -2.072290   0.003058   0.010346  -1.380150   0.008319   0.004151   1.765950  -0.115676  -3.622920  -0.000000   0.001266   0.010799   0.002257   0.002879   0.003830  -6.264440   0.403696  -3.602950  -9.416080   0.002535   0.001742  -6.271090   0.008622   0.001963  10.690100 -10.429600  13.033500   0.581217   4.208210  53.020200 -36.464800 -20.521400  60.856000   4.418730 -25.526600  35.044500 -46.756000  28.323500  60.085300  10.803200  -0.000074  -0.000342   0.401582   0.006596  -0.009990  18.522900   6.295900  18.117600  15.982700   0.003249  -0.004177  11.187800   0.003336  -0.002780  25.358700   5.680660  11.801500  25.946000   0.003191  -0.005568  17.280000  -0.005566  -0.004896  14.784700   3.393340  12.640600  15.160600   0.000400  -0.011408  10.096900   0.001843  -0.001739  20.835800   2.238620   5.859100  31.425600   0.002736  -0.002654  20.929400  -0.003020  -0.001766   2.796800  18.370400   4.082140   1.353910   0.069011   9.452040  -1.531490  -4.711980   2.555380  -0.000000   0.000000  -0.000000   4.726480  16.280300  -6.381600  -0.526184   4.393940  -8.039820  -1.433840  -6.682190  -0.581837  -0.000000   0.000000   0.000000
  0.451321  89.410500   2.073150  -3.493780 -14.775200  -0.659795  -1.210740  11.021400   2.906750  -3.089660  21.961500   6.232570   1.869340  -2.438010   0.084493   3.090140  -4.927360  -1.316680  -9.657970 -12.120900  -3.424500 -41.109600  33.051100 -56.100100  28.735300  -4.129760 -82.719600  36.322400   2.280090 -20.868700  36.353300  27.004000 -54.867200 -32.765500   0.003946   0.002609 -11.382800   0.002068   0.003473   7.008020  -0.821954  -6.658530  -0.000582  -0.001371   0.005061  -0.000422   0.011457   0.003740  -2.035840   0.129665  -3.621440  -2.039960   0.003016   0.010360  -1.358630   0.008370   0.004141   1.753590  -0.115672  -3.622030  -0.000000   0.001261   0.010806   0.002310   0.002867   0.003908  -6.293340   0.403392  -3.601840  -9.459320   0.002488   0.001655  -6.299890   0.008684   0.001937  10.689400 -10.403800  13.026000   0.573567   4.216700  53.004500 -36.535700 -20.530800  60.902800   4.301500 -25.522800  35.007300 -46.752800  28.315200  60.072600  10.757300  -0.000142  -0.000392   0.378684   0.006630  -0.009966  18.495800   6.267400  18.073700  15.949200   0.003257  -0.004221  11.164400   0.003336  -0.002874  25.324500   5.680640  11.812900  25.912700   0.003174  -0.005578  17.257800  -0.005613  -0.004861  14.724000   3.382170  12.652900  15.099000   0.000376  -0.011450  10.055900   0.001899  -0.001733  20.779000   2.241760   5.883220  31.341300   0.002682  -0.002607  20.873300  -0.003050  -0.001765   2.785390  18.354000   4.070720   1.353660   0.135510   9.458900  -1.534260  -4.771830   2.565780  -0.000000   0.000000   0.000000   4.717530  16.280900  -6.382300  -0.527486   4.424950  -8.028010  -1.429780  -6.721230  -0.593796   0.000000   0.000000  -0.000000
  0.451140  89.410900   2.105850  -3.497060 -14.764700  -0.673128  -1.200940  11.008700   2.898860  -3.066940  21.937100   6.213610   1.873380  -2.436510   0.084354   3.094720  -4.926020  -1.343810  -9.661760 -12.110900  -3.438490 -41.111700  33.035400 -56.085600  28.757800  -4.126870 -82.761600  36.272600   2.322680 -20.881600  36.400100  27.068300 -54.902300 -32.733800   0.003918   0.002663 -11.367000   0.002055   0.003514   7.086580  -0.835029  -6.686840  -0.000584  -0.001360   0.005064  -0.000425   0.011555   0.003734  -1.995970   0.128485  -3.655020  -2.000080   0.002979   0.010386  -1.332080   0.008419   0.004126   1.792860  -0.115466  -3.655440  -0.000000   0.001256   0.010810   0.002369   0.002852   0.003983  -6.278470   0.402994  -3.635300  -9.437040   0.002447   0.001570  -6.285060   0.008744   0.001917  10.687700 -10.383700  13.014500   0.566189   4.221100  53.009300 -36.584100 -20.539400  60.955900   4.221440 -25.608200  35.028300 -46.755100  28.330500  60.101000  10.792400  -0.000194  -0.000434   0.396226   0.006644  -0.009950  18.526000   6.224870  17.938300  15.958200   0.003270  -0.004265  11.170700   0.003335  -0.002967  25.354400   5.682940  11.802700  25.942300   0.003159  -0.005590  17.277600  -0.005662  -0.004827  14.752400   3.386130  12.642500  15.127600   0.000354  -0.011489  10.075000   0.001956  -0.001731  20.832100   2.242320   5.860490  31.420700   0.002629  -0.002563  20.926200  -0.003082  -0.001764   2.770450  18.382700   4.066750   1.358230   0.111776   9.466290  -1.529920  -4.779380   2.585350  -0.000000   0.000000  -0.000000   4.709960  16.277600  -6.382410  -0.530357   4.461470  -8.011420  -1.424820  -6.759490  -0.599505  -0.000000   0.000000   0.000000
  0.450817  89.411000   2.136140  -3.503350 -14.754500  -0.698284  -1.190300  10.996500   2.891390  -3.042620  21.913400   6.195350   1.877360  -2.434380   0.084222   3.099760  -4.924470  -1.368980  -9.667130 -12.103600  -3.454640 -41.110700  33.008800 -56.064200  28.782700  -4.125390 -82.795900  36.247000   2.397300 -20.911200  36.433400  27.112400 -54.917500 -32.702200   0.003891   0.002717 -11.351100   0.002045   0.003556   7.197640  -0.853244  -6.725590  -0.000590  -0.001349   0.005071  -0.000427   0.011650   0.003730  -1.961800   0.127495  -3.688590  -1.965920   0.002946   0.010412  -1.309330   0.008470   0.004116   1.842910  -0.115060  -3.688850  -0.000000   0.001252   0.010813   0.002425   0.002837   0.004058  -6.257280   0.402571  -3.668760  -9.405230   0.002407   0.001487  -6.263870   0.008804   0.001897  10.683900 -10.365300  13.002000   0.551728   4.230830  53.014600 -36.633500 -20.558200  61.002000   4.169380 -25.721500  35.065400 -46.760800  28.361400  60.157400  10.863600  -0.000245  -0.000477   0.431785   0.006652  -0.009936  18.557900   6.184620  17.791800  15.976400   0.003284  -0.004309  11.183500   0.003333  -0.003061  25.392300   5.686040  11.790000  25.979800   0.003144  -0.005604  17.302600  -0.005713  -0.004795  14.780800   3.390090  12.632100  15.156100   0.000334  -0.011528  10.094000   0.002012  -0.001730  20.885300   2.242540   5.837750  31.500100   0.002575  -0.002522  20.979100  -0.003115  -0.001764   2.758000  18.411500   4.064900   1.362800   0.088043   9.473410  -1.525170  -4.786900   2.609770   0.000000   0.000000  -0.000000   4.704410  16.272900  -6.382720  -0.534492   4.498530  -7.991150  -1.420250  -6.795340  -0.600800   0.000000   0.000000   0.000000
